<svg id="visual" viewBox="0 0 450 900" width="450" height="900" xmlns="http://www.w3.org/2000/svg" xmlns:xlink="http://www.w3.org/1999/xlink" version="1.1"><rect x="0" y="0" width="450" height="900" fill="#0a0410"></rect><defs><linearGradient id="grad1_0" x1="0%" y1="0%" x2="100%" y2="100%"><stop offset="30%" stop-color="#7fffd4" stop-opacity="1"></stop><stop offset="70%" stop-color="#7fffd4" stop-opacity="1"></stop></linearGradient></defs><defs><linearGradient id="grad1_1" x1="0%" y1="0%" x2="100%" y2="100%"><stop offset="30%" stop-color="#7fffd4" stop-opacity="1"></stop><stop offset="70%" stop-color="#2a7794" stop-opacity="1"></stop></linearGradient></defs><defs><linearGradient id="grad1_2" x1="0%" y1="0%" x2="100%" y2="100%"><stop offset="30%" stop-color="#0a0410" stop-opacity="1"></stop><stop offset="70%" stop-color="#2a7794" stop-opacity="1"></stop></linearGradient></defs><defs><linearGradient id="grad2_0" x1="0%" y1="0%" x2="100%" y2="100%"><stop offset="30%" stop-color="#7fffd4" stop-opacity="1"></stop><stop offset="70%" stop-color="#7fffd4" stop-opacity="1"></stop></linearGradient></defs><defs><linearGradient id="grad2_1" x1="0%" y1="0%" x2="100%" y2="100%"><stop offset="30%" stop-color="#2a7794" stop-opacity="1"></stop><stop offset="70%" stop-color="#7fffd4" stop-opacity="1"></stop></linearGradient></defs><defs><linearGradient id="grad2_2" x1="0%" y1="0%" x2="100%" y2="100%"><stop offset="30%" stop-color="#2a7794" stop-opacity="1"></stop><stop offset="70%" stop-color="#0a0410" stop-opacity="1"></stop></linearGradient></defs><g transform="translate(450, 0)"><path d="M0 450C-48.2 458.1 -96.4 466.2 -111 414.4C-125.7 362.5 -106.9 250.7 -129.5 224.3C-152.1 197.9 -216.2 256.8 -272.9 272.9C-329.7 289 -379.1 262.3 -389.7 225C-400.3 187.7 -372.2 139.9 -375.7 100.7C-379.3 61.4 -414.7 30.7 -450 0L0 0Z" fill="#2b3a51"></path><path d="M0 300C-32.1 305.4 -64.2 310.8 -74 276.3C-83.8 241.7 -71.3 167.1 -86.3 149.5C-101.4 131.9 -144.1 171.2 -182 182C-219.8 192.7 -252.7 174.9 -259.8 150C-266.9 125.1 -248.1 93.3 -250.5 67.1C-252.9 41 -276.4 20.5 -300 0L0 0Z" fill="#2cbbc2"></path><path d="M0 150C-16.1 152.7 -32.1 155.4 -37 138.1C-41.9 120.8 -35.6 83.6 -43.2 74.8C-50.7 66 -72.1 85.6 -91 91C-109.9 96.3 -126.4 87.4 -129.9 75C-133.4 62.6 -124.1 46.6 -125.2 33.6C-126.4 20.5 -138.2 10.2 -150 0L0 0Z" fill="#7fffd4"></path></g><g transform="translate(0, 900)"><path d="M0 -450C49.3 -464.5 98.5 -478.9 116.5 -434.7C134.4 -390.4 121.1 -287.4 148 -256.3C174.9 -225.2 242.1 -266 248.9 -248.9C255.7 -231.8 202.1 -156.8 221.7 -128C241.3 -99.2 334.2 -116.6 384.4 -103C434.7 -89.4 442.3 -44.7 450 0L0 0Z" fill="#2b3a51"></path><path d="M0 -300C32.8 -309.6 65.7 -319.3 77.6 -289.8C89.6 -260.3 80.7 -191.6 98.7 -170.9C116.6 -150.2 161.4 -177.3 165.9 -165.9C170.5 -154.5 134.7 -104.5 147.8 -85.3C160.9 -66.1 222.8 -77.8 256.3 -68.7C289.8 -59.6 294.9 -29.8 300 0L0 0Z" fill="#2cbbc2"></path><path d="M0 -150C16.4 -154.8 32.8 -159.6 38.8 -144.9C44.8 -130.1 40.4 -95.8 49.3 -85.4C58.3 -75.1 80.7 -88.7 83 -83C85.2 -77.3 67.4 -52.3 73.9 -42.7C80.4 -33.1 111.4 -38.9 128.1 -34.3C144.9 -29.8 147.4 -14.9 150 0L0 0Z" fill="#7fffd4"></path></g></svg>