<svg id="visual" viewBox="0 0 450 900" width="450" height="900" xmlns="http://www.w3.org/2000/svg" xmlns:xlink="http://www.w3.org/1999/xlink" version="1.1"><rect x="0" y="0" width="450" height="900" fill="#010609"></rect><defs><linearGradient id="grad1_0" x1="0%" y1="0%" x2="100%" y2="100%"><stop offset="30%" stop-color="#3cfab5" stop-opacity="1"></stop><stop offset="70%" stop-color="#3cfab5" stop-opacity="1"></stop></linearGradient></defs><defs><linearGradient id="grad1_1" x1="0%" y1="0%" x2="100%" y2="100%"><stop offset="30%" stop-color="#3cfab5" stop-opacity="1"></stop><stop offset="70%" stop-color="#00787d" stop-opacity="1"></stop></linearGradient></defs><defs><linearGradient id="grad1_2" x1="0%" y1="0%" x2="100%" y2="100%"><stop offset="30%" stop-color="#010609" stop-opacity="1"></stop><stop offset="70%" stop-color="#00787d" stop-opacity="1"></stop></linearGradient></defs><defs><linearGradient id="grad2_0" x1="0%" y1="0%" x2="100%" y2="100%"><stop offset="30%" stop-color="#3cfab5" stop-opacity="1"></stop><stop offset="70%" stop-color="#3cfab5" stop-opacity="1"></stop></linearGradient></defs><defs><linearGradient id="grad2_1" x1="0%" y1="0%" x2="100%" y2="100%"><stop offset="30%" stop-color="#00787d" stop-opacity="1"></stop><stop offset="70%" stop-color="#3cfab5" stop-opacity="1"></stop></linearGradient></defs><defs><linearGradient id="grad2_2" x1="0%" y1="0%" x2="100%" y2="100%"><stop offset="30%" stop-color="#00787d" stop-opacity="1"></stop><stop offset="70%" stop-color="#010609" stop-opacity="1"></stop></linearGradient></defs><g transform="translate(450, 0)"><path d="M0 135C-8 112.5 -16.1 89.9 -27.5 84.6C-38.9 79.3 -53.7 91.3 -67.6 93C-81.5 94.8 -94.6 86.4 -105.2 76.4C-115.8 66.4 -123.8 54.7 -128.4 41.7C-132.9 28.7 -134 14.4 -135 0L0 0Z" fill="#003d48"></path><path d="M0 90C-5.4 75 -10.7 60 -18.3 56.4C-25.9 52.9 -35.8 60.8 -45.1 62C-54.3 63.2 -63.1 57.6 -70.1 50.9C-77.2 44.3 -82.6 36.5 -85.6 27.8C-88.6 19.1 -89.3 9.6 -90 0L0 0Z" fill="#00b8a3"></path><path d="M0 45C-2.7 37.5 -5.4 30 -9.2 28.2C-13 26.4 -17.9 30.4 -22.5 31C-27.2 31.6 -31.5 28.8 -35.1 25.5C-38.6 22.1 -41.3 18.2 -42.8 13.9C-44.3 9.6 -44.7 4.8 -45 0L0 0Z" fill="#3cfab5"></path></g><g transform="translate(0, 900)"><path d="M0 -135C16.2 -136.6 32.5 -138.2 41.7 -128.4C51 -118.6 53.2 -97.4 64.1 -88.2C74.9 -79 94.3 -81.8 102.7 -74.6C111.2 -67.5 108.7 -50.6 112.2 -36.5C115.8 -22.4 125.4 -11.2 135 0L0 0Z" fill="#003d48"></path><path d="M0 -90C10.8 -91.1 21.6 -92.1 27.8 -85.6C34 -79.1 35.5 -64.9 42.7 -58.8C49.9 -52.6 62.9 -54.5 68.5 -49.8C74.1 -45 72.4 -33.7 74.8 -24.3C77.2 -14.9 83.6 -7.5 90 0L0 0Z" fill="#00b8a3"></path><path d="M0 -45C5.4 -45.5 10.8 -46.1 13.9 -42.8C17 -39.5 17.7 -32.5 21.4 -29.4C25 -26.3 31.4 -27.3 34.2 -24.9C37.1 -22.5 36.2 -16.9 37.4 -12.2C38.6 -7.5 41.8 -3.7 45 0L0 0Z" fill="#3cfab5"></path></g></svg>