<svg id="visual" viewBox="0 0 450 900" width="450" height="900" xmlns="http://www.w3.org/2000/svg" xmlns:xlink="http://www.w3.org/1999/xlink" version="1.1"><rect x="0" y="0" width="450" height="900" fill="#04020b"></rect><defs><linearGradient id="grad1_0" x1="0%" y1="0%" x2="100%" y2="100%"><stop offset="30%" stop-color="#7fffd4" stop-opacity="1"></stop><stop offset="70%" stop-color="#7fffd4" stop-opacity="1"></stop></linearGradient></defs><defs><linearGradient id="grad1_1" x1="0%" y1="0%" x2="100%" y2="100%"><stop offset="30%" stop-color="#7fffd4" stop-opacity="1"></stop><stop offset="70%" stop-color="#27a3b2" stop-opacity="1"></stop></linearGradient></defs><defs><linearGradient id="grad1_2" x1="0%" y1="0%" x2="100%" y2="100%"><stop offset="30%" stop-color="#2c4d64" stop-opacity="1"></stop><stop offset="70%" stop-color="#27a3b2" stop-opacity="1"></stop></linearGradient></defs><defs><linearGradient id="grad1_3" x1="0%" y1="0%" x2="100%" y2="100%"><stop offset="30%" stop-color="#2c4d64" stop-opacity="1"></stop><stop offset="70%" stop-color="#04020b" stop-opacity="1"></stop></linearGradient></defs><defs><linearGradient id="grad2_0" x1="0%" y1="0%" x2="100%" y2="100%"><stop offset="30%" stop-color="#7fffd4" stop-opacity="1"></stop><stop offset="70%" stop-color="#7fffd4" stop-opacity="1"></stop></linearGradient></defs><defs><linearGradient id="grad2_1" x1="0%" y1="0%" x2="100%" y2="100%"><stop offset="30%" stop-color="#27a3b2" stop-opacity="1"></stop><stop offset="70%" stop-color="#7fffd4" stop-opacity="1"></stop></linearGradient></defs><defs><linearGradient id="grad2_2" x1="0%" y1="0%" x2="100%" y2="100%"><stop offset="30%" stop-color="#27a3b2" stop-opacity="1"></stop><stop offset="70%" stop-color="#2c4d64" stop-opacity="1"></stop></linearGradient></defs><defs><linearGradient id="grad2_3" x1="0%" y1="0%" x2="100%" y2="100%"><stop offset="30%" stop-color="#04020b" stop-opacity="1"></stop><stop offset="70%" stop-color="#2c4d64" stop-opacity="1"></stop></linearGradient></defs><g transform="translate(450, 0)"><path d="M0 180C-13.5 155.1 -27 130.1 -52 125.6C-77.1 121.2 -113.8 137.1 -127.3 127.3C-140.7 117.4 -130.9 81.8 -135.8 56.3C-140.7 30.7 -160.4 15.4 -180 0L0 0Z" fill="#212837"></path><path d="M0 135C-10.1 116.3 -20.2 97.6 -39 94.2C-57.9 90.9 -85.4 102.8 -95.5 95.5C-105.5 88.1 -98.2 61.3 -101.9 42.2C-105.5 23.1 -120.3 11.5 -135 0L0 0Z" fill="#2a778f"></path><path d="M0 90C-6.7 77.5 -13.5 65.1 -26 62.8C-38.6 60.6 -56.9 68.6 -63.6 63.6C-70.4 58.7 -65.5 40.9 -67.9 28.1C-70.4 15.4 -80.2 7.7 -90 0L0 0Z" fill="#45d1c9"></path><path d="M0 45C-3.4 38.8 -6.7 32.5 -13 31.4C-19.3 30.3 -28.5 34.3 -31.8 31.8C-35.2 29.4 -32.7 20.4 -34 14.1C-35.2 7.7 -40.1 3.8 -45 0L0 0Z" fill="#7fffd4"></path></g><g transform="translate(0, 900)"><path d="M0 -180C18.7 -169.1 37.4 -158.2 63.1 -152.4C88.9 -146.6 121.7 -145.9 127.3 -127.3C132.9 -108.6 111.2 -72 115.5 -47.8C119.7 -23.6 149.9 -11.8 180 0L0 0Z" fill="#212837"></path><path d="M0 -135C14 -126.8 28 -118.7 47.4 -114.3C66.7 -110 91.3 -109.4 95.5 -95.5C99.6 -81.5 83.4 -54 86.6 -35.9C89.8 -17.7 112.4 -8.9 135 0L0 0Z" fill="#2a778f"></path><path d="M0 -90C9.3 -84.6 18.7 -79.1 31.6 -76.2C44.4 -73.3 60.8 -73 63.6 -63.6C66.4 -54.3 55.6 -36 57.7 -23.9C59.9 -11.8 74.9 -5.9 90 0L0 0Z" fill="#45d1c9"></path><path d="M0 -45C4.7 -42.3 9.3 -39.6 15.8 -38.1C22.2 -36.7 30.4 -36.5 31.8 -31.8C33.2 -27.2 27.8 -18 28.9 -12C29.9 -5.9 37.5 -3 45 0L0 0Z" fill="#7fffd4"></path></g></svg>